<?xml version="1.0" encoding="UTF-8" standalone="no"?>
<svg
   xmlns:dc="http://purl.org/dc/elements/1.1/"
   xmlns:cc="http://creativecommons.org/ns#"
   xmlns:rdf="http://www.w3.org/1999/02/22-rdf-syntax-ns#"
   xmlns:svg="http://www.w3.org/2000/svg"
   xmlns="http://www.w3.org/2000/svg"
   xmlns:xlink="http://www.w3.org/1999/xlink"
   xmlns:sodipodi="http://sodipodi.sourceforge.net/DTD/sodipodi-0.dtd"
   xmlns:inkscape="http://www.inkscape.org/namespaces/inkscape"
   width="32.092827mm"
   height="41.07885mm"
   viewBox="0 0 32.092827 41.07885"
   version="1.1"
   id="svg8"
   inkscape:version="1.0.1 (3bc2e813f5, 2020-09-07)"
   sodipodi:docname="Indocement Tiga Roda logo.svg">
  <defs
     id="defs2">
    <clipPath
       clipPathUnits="userSpaceOnUse"
       id="clipPath851">
      <path
         d="M 0,841.89 H 595.276 V 0 H 0 Z"
         id="path849" />
    </clipPath>
    <clipPath
       clipPathUnits="userSpaceOnUse"
       id="clipPath867">
      <path
         d="M 0,0 H 595.276 V 841.89 H 0 Z"
         id="path865" />
    </clipPath>
    <clipPath
       clipPathUnits="userSpaceOnUse"
       id="clipPath1123">
      <path
         d="M 0,841.89 H 595.276 V 0 H 0 Z"
         id="path1121" />
    </clipPath>
    <clipPath
       clipPathUnits="userSpaceOnUse"
       id="clipPath1289">
      <path
         d="M 0,0 H 595.275 V 841.89 H 0 Z"
         id="path1287" />
    </clipPath>
    <clipPath
       clipPathUnits="userSpaceOnUse"
       id="clipPath1309">
      <path
         d="M 0,841.89 H 595.276 V 0 H 0 Z"
         id="path1307" />
    </clipPath>
    <clipPath
       clipPathUnits="userSpaceOnUse"
       id="clipPath1329">
      <path
         d="M 0,0 H 595.276 V 841.89 H 0 Z"
         id="path1327" />
    </clipPath>
    <clipPath
       clipPathUnits="userSpaceOnUse"
       id="clipPath1345">
      <path
         d="m 449.406,669.445 h 90.972 V 785.89 h -90.972 z"
         id="path1343" />
    </clipPath>
  </defs>
  <sodipodi:namedview
     id="base"
     pagecolor="#ffffff"
     bordercolor="#666666"
     borderopacity="1.0"
     inkscape:pageopacity="0.0"
     inkscape:pageshadow="2"
     inkscape:zoom="2.8"
     inkscape:cx="56.839154"
     inkscape:cy="80.74498"
     inkscape:document-units="mm"
     inkscape:current-layer="layer1"
     inkscape:document-rotation="0"
     showgrid="false"
     fit-margin-top="0"
     fit-margin-left="0"
     fit-margin-right="0"
     fit-margin-bottom="0"
     inkscape:window-width="1267"
     inkscape:window-height="728"
     inkscape:window-x="78"
     inkscape:window-y="0"
     inkscape:window-maximized="0" />
  <metadata
     id="metadata5">
    <rdf:RDF>
      <cc:Work
         rdf:about="">
        <dc:format>image/svg+xml</dc:format>
        <dc:type
           rdf:resource="http://purl.org/dc/dcmitype/StillImage" />
        <dc:title></dc:title>
      </cc:Work>
    </rdf:RDF>
  </metadata>
  <g
     inkscape:label="Layer 1"
     inkscape:groupmode="layer"
     id="layer1"
     transform="translate(-112.39189,-89.257105)">
    <g
       id="g1339"
       transform="matrix(0.35277777,0,0,-0.35277777,-46.148632,366.50138)">
      <g
         id="g1341"
         clip-path="url(#clipPath1345)">
        <g
           id="g1347"
           transform="translate(449.4592,740.4953)">
          <path
             d="M 0,0 C 0,25.071 20.324,45.394 45.394,45.394 70.465,45.394 90.789,25.071 90.789,0 90.789,-25.071 70.465,-45.395 45.394,-45.395 20.324,-45.395 0,-25.071 0,0"
             style="fill:#0b4f9f;fill-opacity:1;fill-rule:nonzero;stroke:none"
             id="path1349" />
        </g>
        <g
           id="g1351"
           transform="translate(453.717,745.6324)">
          <path
             d="M 0,0 C 0,0.996 0.807,1.803 1.803,1.803 2.799,1.803 3.606,0.996 3.606,0 3.606,-0.996 2.799,-1.803 1.803,-1.803 0.807,-1.803 0,-0.996 0,0"
             style="fill:#ffffff;fill-opacity:1;fill-rule:nonzero;stroke:none"
             id="path1353" />
        </g>
        <g
           id="g1355"
           transform="translate(532.6104,745.2166)">
          <path
             d="M 0,0 C 0,0.996 0.807,1.803 1.803,1.803 2.799,1.803 3.606,0.996 3.606,0 3.606,-0.996 2.799,-1.803 1.803,-1.803 0.807,-1.803 0,-0.996 0,0"
             style="fill:#ffffff;fill-opacity:1;fill-rule:nonzero;stroke:none"
             id="path1357" />
        </g>
        <g
           id="g1359"
           transform="translate(463.6312,740.4953)">
          <path
             d="M 0,0 C 0,17.244 13.979,31.222 31.222,31.222 48.466,31.222 62.445,17.244 62.445,0 62.445,-17.244 48.466,-31.223 31.222,-31.223 13.979,-31.223 0,-17.244 0,0"
             style="fill:#ed1d24;fill-opacity:1;fill-rule:nonzero;stroke:none"
             id="path1361" />
        </g>
        <g
           id="g1363"
           transform="translate(460.384,740.4953)">
          <path
             d="M 0,0 C 0,19.037 15.432,34.47 34.47,34.47 53.507,34.47 68.939,19.037 68.939,0 68.939,-19.037 53.507,-34.47 34.47,-34.47 15.432,-34.47 0,-19.037 0,0 m 1.395,0 c 0,-18.267 14.808,-33.075 33.075,-33.075 18.267,0 33.075,14.808 33.075,33.075 0,18.267 -14.808,33.075 -33.075,33.075 C 16.203,33.075 1.395,18.267 1.395,0"
             style="fill:#ffffff;fill-opacity:1;fill-rule:nonzero;stroke:none"
             id="path1365" />
        </g>
        <g
           id="g1367"
           transform="translate(462.4877,740.4953)">
          <path
             d="M 0,0 C 0,17.875 14.49,32.366 32.366,32.366 50.242,32.366 64.732,17.875 64.732,0 64.732,-17.876 50.242,-32.366 32.366,-32.366 14.49,-32.366 0,-17.876 0,0 m 1.144,0 c 0,-17.244 13.978,-31.223 31.222,-31.223 17.244,0 31.222,13.979 31.222,31.223 0,17.244 -13.978,31.222 -31.222,31.222 C 15.122,31.222 1.144,17.244 1.144,0"
             style="fill:#ffffff;fill-opacity:1;fill-rule:nonzero;stroke:none"
             id="path1369" />
        </g>
        <g
           id="g1371"
           transform="translate(481.053,756.0695)">
          <path
             d="m 0,0 c 0,7.826 6.344,14.169 14.169,14.169 7.826,0 14.169,-6.343 14.169,-14.169 0,-7.826 -6.343,-14.169 -14.169,-14.169 C 6.344,-14.169 0,-7.826 0,0 m 2.182,0 c 0,-6.621 5.367,-11.987 11.987,-11.987 6.621,0 11.988,5.366 11.988,11.987 0,6.621 -5.367,11.987 -11.988,11.987 C 7.549,11.987 2.182,6.621 2.182,0"
             style="fill:#ffffff;fill-opacity:1;fill-rule:nonzero;stroke:none"
             id="path1373" />
        </g>
        <g
           id="g1375"
           transform="translate(467.6869,733.4216)">
          <path
             d="m 0,0 c 0,7.825 6.344,14.169 14.169,14.169 7.826,0 14.169,-6.344 14.169,-14.169 0,-7.826 -6.343,-14.169 -14.169,-14.169 C 6.344,-14.169 0,-7.826 0,0 m 2.182,0 c 0,-6.621 5.367,-11.987 11.987,-11.987 6.621,0 11.988,5.366 11.988,11.987 0,6.621 -5.367,11.987 -11.988,11.987 C 7.549,11.987 2.182,6.621 2.182,0"
             style="fill:#ffffff;fill-opacity:1;fill-rule:nonzero;stroke:none"
             id="path1377" />
        </g>
        <g
           id="g1379"
           transform="translate(493.9435,733.4216)">
          <path
             d="m 0,0 c 0,7.825 6.344,14.169 14.169,14.169 7.826,0 14.169,-6.344 14.169,-14.169 0,-7.826 -6.343,-14.169 -14.169,-14.169 C 6.344,-14.169 0,-7.826 0,0 m 2.182,0 c 0,-6.621 5.367,-11.987 11.987,-11.987 6.62,0 11.988,5.366 11.988,11.987 0,6.621 -5.368,11.987 -11.988,11.987 C 7.549,11.987 2.182,6.621 2.182,0"
             style="fill:#ffffff;fill-opacity:1;fill-rule:nonzero;stroke:none"
             id="path1381" />
        </g>
        <g
           id="g1383"
           transform="translate(488.9702,697.0401)">
          <path
             d="m 0,0 c 0.017,-0.292 0.064,-0.458 0.14,-0.498 l 2.154,-0.023 c 0.234,-0.011 0.34,0.059 0.319,0.21 0,0 -0.21,5.965 -0.155,6.043 l 2.193,-5.864 c 0,0 0.132,-0.405 0.303,-0.405 l 1.874,0.008 c 0,0 0.273,-0.015 0.335,0.241 l 2.038,5.717 c 0,0 0.093,0.225 0.147,0.109 L 9.24,-0.233 c 0,0 -0.016,-0.288 0.07,-0.288 0,0 2.216,-0.008 2.395,0.023 0,0 0.14,0.14 0.124,0.28 l -0.007,8.066 c 0,0 -0.008,0.287 -0.226,0.28 l -3.85,0.007 c 0,0 -0.132,0.008 -0.147,-0.132 L 6.012,3.08 c 0,0 -0.055,-0.233 -0.187,-0.062 L 4.161,7.925 c 0,0 -0.093,0.218 -0.272,0.218 L 0.202,8.12 c 0,0 -0.155,0.046 -0.171,-0.241 z"
             style="fill:#ffffff;fill-opacity:1;fill-rule:nonzero;stroke:none"
             id="path1385" />
        </g>
        <g
           id="g1387"
           transform="translate(505.2056,697.7324)">
          <path
             d="m 0,0 c 0,0 0.045,-0.146 0.214,-0.105 l 6.525,2.213 c 0,0 0.261,0.07 0.23,0.183 L 6.525,3.714 c 0,0 -0.062,0.241 -0.33,0.171 L 2.228,2.547 c 0,0 -0.081,-0.035 -0.128,0.031 0,0 -0.467,1.143 -0.338,1.28 L 5.37,5.106 c 0,0 0.249,0.039 0.203,0.288 -0.047,0.249 -0.385,1.186 -0.448,1.244 0,0 -0.081,0.039 -0.179,0.008 L 1.521,5.487 c 0,0 -0.319,-0.136 -0.382,-0.004 0,0 -0.412,1.108 -0.252,1.175 l 3.612,1.236 c 0,0 0.568,0.14 0.478,0.37 L 4.515,9.683 c 0,0 -0.066,0.163 -0.237,0.113 l -6.51,-2.217 c 0,0 -0.152,-0.047 -0.117,-0.276 0,0 1.909,-6.214 2.213,-6.945 z"
             style="fill:#ffffff;fill-opacity:1;fill-rule:nonzero;stroke:none"
             id="path1389" />
        </g>
        <g
           id="g1391"
           transform="translate(515.552,701.4586)">
          <path
             d="m 0,0 c 0,0 0.088,-0.079 0.211,-0.022 l 1.964,1.298 c 0,0 0.193,0.094 0.106,0.27 l -3.228,4.681 c 0,0 -0.084,0.211 0.074,0.13 L 4.493,3.065 c 0,0 0.16,-0.131 0.364,-0.017 l 3.559,2.344 c 0,0 0.204,0.149 0.151,0.237 l -4.35,6.55 c 0,0 -0.089,0.151 -0.299,0.02 0,0 -1.972,-1.28 -2.042,-1.377 0,0 -0.078,-0.035 0.027,-0.218 L 4.94,6.159 c 0,0 0.179,-0.206 0.055,-0.245 L -0.201,9.06 c 0,0 -0.268,0.229 -0.614,0.031 C -1.161,8.892 -4.237,6.804 -4.276,6.773 -4.315,6.742 -4.4,6.676 -4.362,6.575 -1.591,2.333 -0.137,0.141 0,0"
             style="fill:#ffffff;fill-opacity:1;fill-rule:nonzero;stroke:none"
             id="path1393" />
        </g>
        <g
           id="g1395"
           transform="translate(478.3455,699.9214)">
          <path
             d="m 0,0 c 0,0 -0.05,-0.144 0.111,-0.211 l 6.58,-2.045 c 0,0 0.252,-0.097 0.293,0.013 l 0.478,1.412 c 0,0 0.091,0.232 -0.167,0.333 L 3.3,0.751 c 0,0 -0.087,0.02 -0.086,0.101 0,0 0.295,1.199 0.479,1.233 L 7.346,0.974 c 0,0 0.224,-0.115 0.333,0.114 0.108,0.229 0.385,1.186 0.369,1.27 0,0 -0.043,0.079 -0.14,0.111 L 4.455,3.545 c 0,0 -0.338,0.078 -0.31,0.221 0,0 0.318,1.139 0.485,1.099 L 8.28,3.742 c 0,0 0.542,-0.22 0.604,0.018 l 0.46,1.42 c 0,0 0.042,0.171 -0.126,0.231 L 2.649,7.444 c 0,0 -0.15,0.051 -0.257,-0.155 0,0 -2.107,-6.15 -2.292,-6.92 z"
             style="fill:#ffffff;fill-opacity:1;fill-rule:nonzero;stroke:none"
             id="path1397" />
        </g>
        <g
           id="g1399"
           transform="translate(470.1598,707.2247)">
          <path
             d="m 0,0 c 0.16,0.152 0.093,0.221 0.235,0.147 0.141,-0.074 1.427,-0.815 1.749,-1.11 0,0 0.062,-0.044 0.031,-0.137 -0.031,-0.094 -0.362,-0.627 -0.008,-0.957 0.354,-0.331 1.427,-0.918 1.427,-0.918 0,0 0.568,-0.272 0.918,0.202 0.35,0.475 0.047,0.801 -0.124,0.926 -0.171,0.124 -1.595,1.19 -2.054,1.618 -0.458,0.427 -1.33,1.011 -0.7,2.418 0.63,1.408 1.517,2.124 2.334,2.038 C 4.624,4.142 6.18,3.185 6.748,2.812 7.315,2.438 8.583,1.489 8.591,0.704 8.599,-0.082 8.241,-0.797 7.883,-1.124 c 0,0 -1.423,0.708 -1.913,1.206 0,0 0.33,0.622 0.07,0.902 C 5.779,1.264 4.772,1.956 4.395,1.921 4.018,1.886 3.687,1.373 3.773,1.007 3.858,0.642 5.169,-0.074 5.791,-0.626 6.413,-1.178 7.199,-1.878 6.965,-2.773 6.732,-3.667 6.102,-4.523 5.604,-4.935 5.107,-5.347 4.624,-5.456 3.683,-5.199 c -0.941,0.256 -3.033,1.796 -3.344,2.1 -0.311,0.303 -1.299,0.995 -0.793,2.185 0,0 0.294,0.762 0.454,0.914"
             style="fill:#ffffff;fill-opacity:1;fill-rule:nonzero;stroke:none"
             id="path1401" />
        </g>
        <g
           id="g1403"
           transform="translate(456.3987,757.9428)">
          <path
             d="m 0,0 c 0,0 0.326,-0.244 0.502,0.104 l 1.364,2.348 c 0,0 0.132,0.226 0.335,0.156 l 4.674,-2.66 c 0,0 0.284,-0.159 0.423,0.125 l 0.961,1.656 c 0,0 0.175,0.276 -0.12,0.474 L 3.67,4.809 c 0,0 -0.35,0.148 -0.194,0.436 l 1.377,2.449 c 0,0 0.124,0.164 -0.14,0.397 L 3.406,8.853 c 0,0 -0.257,0.156 -0.436,-0.132 L -1.253,1.348 c 0,0 -0.287,-0.404 -0.031,-0.575 z"
             style="fill:#ffffff;fill-opacity:1;fill-rule:nonzero;stroke:none"
             id="path1405" />
        </g>
        <g
           id="g1407"
           transform="translate(460.9626,768.2378)">
          <path
             d="m 0,0 c 0,0 -0.249,-0.304 -0.037,-0.443 l 5.734,-4.839 c 0,0 0.212,-0.175 0.424,0.055 l 1.244,1.503 c 0,0 0.221,0.231 0.018,0.396 L 1.779,1.364 c 0,0 -0.249,0.332 -0.525,0.111 z"
             style="fill:#ffffff;fill-opacity:1;fill-rule:nonzero;stroke:none"
             id="path1409" />
        </g>
        <g
           id="g1411"
           transform="translate(477.4774,772.3208)">
          <path
             d="m 0,0 c 0,0 -0.193,-0.018 -0.286,0.04 -0.093,0.058 -0.012,0.681 -0.012,0.681 0,0 1.194,7.163 1.264,7.699 0.07,0.537 0.432,0.584 0.432,0.584 0,0 2.084,0.762 2.395,0.871 0.311,0.109 0.591,-0.179 0.591,-0.179 0,0 6.088,-5.503 6.279,-5.757 0.191,-0.254 -0.224,-0.35 -0.224,-0.35 0,0 -1.513,-0.526 -1.872,-0.669 -0.359,-0.143 -0.631,0.129 -0.631,0.129 0,0 -0.451,0.335 -0.68,0.599 -0.229,0.264 -0.559,0.09 -0.559,0.09 0,0 -3.763,-1.297 -3.983,-1.368 C 2.495,2.298 2.46,1.834 2.46,1.834 2.46,1.834 2.408,1.56 2.393,1.173 2.379,0.787 1.986,0.656 1.986,0.656 Z M 3.219,7.331 C 3.179,7.339 2.868,5.006 2.868,5.006 c 0,0 -0.055,-0.381 0.124,-0.358 0.179,0.023 2.17,0.77 2.17,0.77 0,0 0.218,0.086 -0.023,0.257 L 3.443,7.269 c 0,0 -0.184,0.054 -0.224,0.062"
             style="fill:#ffffff;fill-opacity:1;fill-rule:nonzero;stroke:none"
             id="path1413" />
        </g>
        <g
           id="g1415"
           transform="translate(470.0496,772.1774)">
          <path
             d="m 0,0 c 0.092,-0.21 0.645,-0.939 0.813,-1.087 0,0 0.152,-0.177 0.388,-0.043 l 2.072,1.541 c 0,0 0.053,-0.014 0.096,-0.057 0.043,-0.043 0.48,-0.521 -0.311,-1.158 -0.79,-0.637 -2.523,-1.904 -2.704,-1.947 -0.181,-0.044 -0.504,-0.36 -1.111,0.238 -0.607,0.599 -1.325,1.696 -1.354,1.781 -0.029,0.086 -0.424,0.588 0.201,1.153 0.627,0.565 2.801,2.165 2.977,2.26 C 1.244,2.775 1.559,2.719 1.717,2.575 1.876,2.431 1.985,2.35 2.206,2.503 2.426,2.657 3.814,3.743 3.814,3.743 3.814,3.743 4,3.839 3.79,4.14 3.58,4.441 2.81,5.57 1.604,5.327 0.397,5.083 -1.002,3.854 -1.164,3.72 -1.325,3.585 -3.027,2.295 -3.253,2.124 -3.479,1.953 -5.361,0.631 -5.034,-0.847 c 0.327,-1.478 2.489,-3.733 2.691,-3.998 0.202,-0.264 1.307,-1.229 3.204,-0.171 l 2.249,1.618 1.991,1.548 c 0,0 0.993,0.868 1.11,1.243 0.117,0.375 0.368,0.787 -0.115,1.642 -0.482,0.855 -1.508,2.14 -1.508,2.14 0,0 -0.209,0.386 -0.569,0.138 L 0.131,0.389 C 0.131,0.389 -0.092,0.211 0,0"
             style="fill:#ffffff;fill-opacity:1;fill-rule:nonzero;stroke:none"
             id="path1417" />
        </g>
        <g
           id="g1419"
           transform="translate(492.9389,776.6395)">
          <path
             d="m 0,0 -0.002,0.508 0.186,2.964 c 0,0 0.148,3.585 0.296,3.99 C 0.628,7.866 1.133,7.71 1.133,7.71 L 7.168,7.298 c 0,0 0.841,0.008 1.642,-0.264 C 9.611,6.762 9.875,6.209 10.007,5.743 10.139,5.276 10.124,4.763 10.015,3.79 9.906,2.818 9.315,2.468 9.214,2.406 9.113,2.344 8.887,2.313 9.292,2.017 9.696,1.722 9.789,0.858 9.789,0.858 c 0,0 -0.023,-0.933 -0.054,-1.4 C 9.704,-1.008 9.222,-0.938 9.222,-0.938 l -1.61,0.078 c -0.56,0.031 -0.467,0.396 -0.467,0.396 0,0 -0.015,0.801 -0.023,0.926 C 7.114,0.586 7.2,1.099 6.64,1.232 6.08,1.364 2.865,1.501 2.865,1.501 2.687,1.497 2.683,1.3 2.683,1.3 c 0,0 -0.099,-0.962 -0.118,-1.406 -0.019,-0.445 -0.475,-0.35 -0.475,-0.35 0,0 -1.668,0.106 -1.888,0.171 C -0.018,-0.221 0,0 0,0 m 3.035,5.362 c 0,0 -0.141,-0.202 -0.155,-0.763 -0.014,-0.561 0.098,-0.876 0.098,-0.876 0,0 3.485,-0.317 4.025,-0.253 0.54,0.063 0.512,0.765 0.519,1.052 C 7.529,4.808 7.395,5.005 6.665,5.146 5.934,5.287 3.035,5.362 3.035,5.362"
             style="fill:#ffffff;fill-opacity:1;fill-rule:nonzero;stroke:none"
             id="path1421" />
        </g>
        <g
           id="g1423"
           transform="translate(504.2415,778.3267)">
          <path
             d="M 0,0 C 0,0 0.867,2.096 0.991,2.376 1.116,2.656 1.66,3.799 2.555,4.04 3.449,4.281 4.888,3.791 4.888,3.791 c 0,0 3.834,-1.625 4.34,-1.851 0.505,-0.226 1.563,-0.848 1.944,-1.571 0.381,-0.723 0.093,-1.867 0.093,-1.867 l -0.412,-1.073 c 0,0 -0.941,-2.084 -1.073,-2.318 -0.132,-0.233 -0.552,-1.057 -1.82,-1.143 -1.268,-0.085 -3.414,1.003 -3.414,1.003 -1.167,0.436 -3.345,1.494 -3.345,1.494 0,0 -0.396,0.109 -1.135,1.034 C -0.673,-1.575 0,0 0,0 m 4.744,1.409 c 0,0 -0.999,0.333 -1.396,-0.441 -0.397,-0.774 -0.762,-1.781 -0.762,-1.781 0,0 -0.156,-0.529 0.186,-0.902 0.343,-0.374 1.634,-0.794 1.634,-0.794 l 1.726,-0.739 c 0,0 0.965,-0.575 1.431,0.109 0.467,0.685 0.833,1.774 0.833,1.774 0,0 0.357,1.049 -0.413,1.361 z"
             style="fill:#ffffff;fill-opacity:1;fill-rule:nonzero;stroke:none"
             id="path1425" />
        </g>
        <g
           id="g1427"
           transform="translate(513.7877,771.5479)">
          <path
             d="m 0,0 0.669,0.879 1.883,2.45 1.975,2.504 C 4.76,6.152 5.102,5.802 5.102,5.802 L 6.736,4.511 c 0,0 3.899,-3.081 4.161,-3.274 0.474,-0.35 0.894,-1.003 1.065,-1.276 0.171,-0.272 0.233,-0.521 0.21,-1.127 -0.023,-0.607 -0.669,-1.509 -0.669,-1.509 L 9.971,-4.627 c 0,0 -0.661,-0.949 -1.656,-1.198 -0.996,-0.249 -2.443,0.832 -2.443,0.832 l -0.738,0.537 -1.746,1.365 -1.63,1.264 -1.727,1.368 C -0.249,-0.221 0,0 0,0 m 3.26,-0.319 c -0.062,-0.097 0.154,-0.114 0.154,-0.114 0,0 2.844,-2.232 3.089,-2.415 0.246,-0.182 0.584,-0.378 0.899,-0.441 0.315,-0.062 0.737,0.327 0.737,0.327 l 1.174,1.522 c 0.401,0.699 -0.235,1.195 -0.235,1.195 L 8.437,0.298 5.766,2.381 C 5.664,2.477 5.485,2.502 5.485,2.502 L 5.21,2.192 c 0,0 -1.887,-2.414 -1.95,-2.511"
             style="fill:#ffffff;fill-opacity:1;fill-rule:nonzero;stroke:none"
             id="path1429" />
        </g>
        <g
           id="g1431"
           transform="translate(521.7875,764.9076)">
          <path
             d="m 0,0 c 0,0 -0.049,0.172 0.239,0.22 0.287,0.048 8.146,0.406 8.146,0.406 0,0 0.494,0.135 0.766,-0.253 0.273,-0.387 1.355,-2.274 1.355,-2.274 0,0 0.182,-0.295 -0.058,-0.631 -0.24,-0.335 -4.193,-7.17 -4.193,-7.17 0,0 -0.119,-0.254 -0.335,-0.1 -0.215,0.153 -1.23,1.967 -1.23,1.967 0,0 -0.163,0.172 0.038,0.536 0.202,0.364 0.46,0.78 0.46,0.78 0,0 0.176,0.182 0.038,0.455 -0.138,0.272 -0.665,1.091 -0.665,1.091 l -1.714,2.8 -1.152,-0.067 c 0,0 -0.417,-0.081 -0.556,0.278 z M 5.314,-2.445 C 5.46,-2.689 6.44,-4.292 6.44,-4.292 c 0,0 0.088,-0.241 0.241,-0.024 0.154,0.217 1.26,2.16 1.26,2.16 0,0 0.102,0.142 -0.063,0.126 L 5.401,-2.187 c 0,0 -0.232,-0.014 -0.087,-0.258"
             style="fill:#ffffff;fill-opacity:1;fill-rule:nonzero;stroke:none"
             id="path1433" />
        </g>
        <g
           id="g1435"
           transform="translate(449.4522,688.4871)">
          <path
             d="M 0,0 C 0,0 -0.022,0.124 0.228,0.137 H 1.5 c 0,0 0.137,-0.042 0.169,-0.342 L 1.656,-9.09 c 0,0 0.127,-0.204 -0.778,-0.185 -0.904,0.02 -0.891,0.146 -0.891,0.185 0,0 -0.033,1.536 -0.026,1.839 0.007,0.302 -0.007,3.76 -0.007,3.76 l 0.033,2.554 z"
             style="fill:#0b4f9f;fill-opacity:1;fill-rule:nonzero;stroke:none"
             id="path1437" />
        </g>
        <g
           id="g1439"
           transform="translate(453.8826,679.4628)">
          <path
             d="m 0,0 c 0,0 -0.011,-0.186 0.161,-0.22 0.173,-0.033 1.038,-0.111 1.338,0.006 0,0 0.1,0.014 0.122,0.117 L 1.645,6.44 c 0,0 0.038,0.14 0.14,0.039 L 5.992,0.07 c 0,0 0.187,-0.381 0.521,-0.373 h 1.175 c 0,0 0.365,0.008 0.365,0.155 L 8.069,8.89 c 0,0 -0.024,0.28 -0.234,0.28 L 6.723,9.162 c 0,0 -0.233,-0.023 -0.233,-0.187 L 6.482,2.357 c 0,0 -0.07,-0.105 -0.078,-0.175 L 2.251,8.758 c 0,0 -0.136,0.396 -0.439,0.4 H 0.198 c 0,0 -0.175,0.004 -0.202,-0.229 z"
             style="fill:#0b4f9f;fill-opacity:1;fill-rule:nonzero;stroke:none"
             id="path1441" />
        </g>
        <g
           id="g1443"
           transform="translate(464.728,688.4674)">
          <path
             d="M 0,0 C 0.025,0.162 0.303,0.161 0.303,0.161 L 4.173,0.155 C 8.578,-0.169 8.532,-4.314 8.532,-4.594 8.532,-6.212 7.816,-7.503 6.65,-8.39 5.483,-9.277 3.517,-9.23 3.517,-9.23 L 0.404,-9.257 C -0.055,-9.238 0,-9.043 0,-9.043 0,-9.043 -0.025,-0.161 0,0 M 1.762,-1.484 1.758,-7.433 c 0,0 -0.039,-0.358 0.272,-0.319 L 3.694,-7.76 c 1.891,0.232 2.897,1.238 3.018,3.018 -0.042,2.151 -0.954,3.287 -2.738,3.406 L 2.061,-1.274 C 1.885,-1.296 1.785,-1.367 1.762,-1.484"
             style="fill:#0b4f9f;fill-opacity:1;fill-rule:nonzero;stroke:none"
             id="path1445" />
        </g>
        <g
           id="g1447"
           transform="translate(500.1697,688.6367)">
          <path
             d="m 0,0 c 0,0 0.28,0.008 0.311,-0.093 0.031,-0.102 0.055,-0.56 0.055,-0.634 0,-0.074 0.058,-0.665 -0.226,-0.681 l -3.352,-0.004 c 0,0 -0.366,0.031 -0.397,-0.194 L -3.613,-3.55 c 0,0 -0.054,-0.35 0.23,-0.358 l 2.757,0.004 c 0,0 0.249,0.062 0.268,-0.354 l -0.008,-0.751 c 0,0 0.055,-0.303 -0.287,-0.319 l -2.656,-0.004 c 0,0 -0.28,0.039 -0.296,-0.237 l -0.008,-2.135 c 0,0 -0.019,-0.26 0.171,-0.287 0.191,-0.028 2.05,-0.016 2.05,-0.016 l 1.738,0.012 c 0,0 0.214,-0.004 0.222,-0.323 l 0.008,-0.735 c 0,0 0,-0.334 -0.133,-0.35 l -5.444,-0.023 c 0,0 -0.253,0.015 -0.253,0.105 0,0.089 -0.023,0.723 -0.023,0.723 l -0.027,2.22 0.004,6.028 c 0,0 -0.063,0.292 0.276,0.338 z"
             style="fill:#0b4f9f;fill-opacity:1;fill-rule:nonzero;stroke:none"
             id="path1449" />
        </g>
        <g
           id="g1451"
           transform="translate(520.5778,688.6367)">
          <path
             d="m 0,0 c 0,0 0.28,0.008 0.311,-0.093 0.031,-0.102 0.055,-0.56 0.055,-0.634 0,-0.074 0.058,-0.665 -0.226,-0.681 l -3.352,-0.004 c 0,0 -0.366,0.031 -0.397,-0.194 L -3.613,-3.55 c 0,0 -0.054,-0.35 0.23,-0.358 l 2.757,0.004 c 0,0 0.249,0.062 0.268,-0.354 l -0.008,-0.751 c 0,0 0.055,-0.303 -0.287,-0.319 l -2.656,-0.004 c 0,0 -0.28,0.039 -0.296,-0.237 l -0.008,-2.135 c 0,0 -0.019,-0.26 0.171,-0.287 0.191,-0.028 2.05,-0.016 2.05,-0.016 l 1.738,0.012 c 0,0 0.214,-0.004 0.222,-0.323 l 0.008,-0.735 c 0,0 0,-0.334 -0.133,-0.35 l -5.444,-0.023 c 0,0 -0.253,0.015 -0.253,0.105 0,0.089 -0.023,0.723 -0.023,0.723 l -0.027,2.22 0.004,6.028 c 0,0 -0.062,0.292 0.276,0.338 z"
             style="fill:#0b4f9f;fill-opacity:1;fill-rule:nonzero;stroke:none"
             id="path1453" />
        </g>
        <g
           id="g1455"
           transform="translate(523.1953,679.4628)">
          <path
             d="m 0,0 c 0,0 -0.011,-0.186 0.161,-0.22 0.173,-0.033 1.038,-0.111 1.338,0.006 0,0 0.1,0.014 0.122,0.117 L 1.645,6.44 c 0,0 0.038,0.14 0.139,0.039 L 5.992,0.07 c 0,0 0.187,-0.381 0.521,-0.373 h 1.175 c 0,0 0.365,0.008 0.365,0.155 L 8.069,8.89 c 0,0 -0.024,0.28 -0.234,0.28 L 6.723,9.162 c 0,0 -0.233,-0.023 -0.233,-0.187 L 6.482,2.357 c 0,0 -0.07,-0.105 -0.078,-0.175 L 2.251,8.758 c 0,0 -0.136,0.396 -0.439,0.4 H 0.198 c 0,0 -0.175,0.004 -0.202,-0.229 z"
             style="fill:#0b4f9f;fill-opacity:1;fill-rule:nonzero;stroke:none"
             id="path1457" />
        </g>
        <g
           id="g1459"
           transform="translate(532.9556,688.485)">
          <path
             d="m 0,0 c 0,0 0.004,0.113 0.268,0.144 h 6.856 c 0,0 0.237,0 0.268,-0.163 0.032,-0.164 0.028,-0.973 0.028,-0.973 0,0 0.05,-0.202 -0.277,-0.264 L 4.853,-1.26 c 0,0 -0.288,0.015 -0.319,-0.268 v -7.354 c 0,0 0.066,-0.323 -0.241,-0.373 -0.307,-0.051 -1.205,-0.004 -1.205,-0.004 0,0 -0.21,0.031 -0.23,0.338 -0.019,0.307 -0.004,7.373 -0.004,7.373 0,0 0.039,0.257 -0.276,0.28 -0.315,0.023 -2.263,0.004 -2.263,0.004 0,0 -0.268,-0.012 -0.303,0.261 C -0.023,-0.731 0,0 0,0"
             style="fill:#0b4f9f;fill-opacity:1;fill-rule:nonzero;stroke:none"
             id="path1461" />
        </g>
        <g
           id="g1463"
           transform="translate(502.7596,679.5992)">
          <path
             d="m 0,0 c 0,0 0.027,-0.35 0.171,-0.358 0.144,-0.008 0.579,-0.031 0.579,-0.031 0,0 0.456,0 0.588,0.062 0.132,0.063 0.148,0.086 0.155,0.366 0.008,0.28 0.008,6.047 0.008,6.047 0,0 0.023,0.459 0.249,-0.047 0,0 0.272,-0.976 0.4,-1.353 0.129,-0.377 1.696,-4.713 1.836,-4.989 0,0 -0.004,-0.082 0.07,-0.082 0,0 1.279,0.004 1.404,0.035 0,0 0.039,0.019 0.077,0.062 l 2.497,6.475 c 0,0 0.086,0.159 0.148,-0.179 v -6.055 c 0,0 -0.066,-0.389 0.77,-0.342 0.836,0.047 0.809,0.113 0.809,0.171 l 0.003,8.999 c 0,0 0.024,0.183 -0.19,0.21 C 9.36,9.018 8.369,9.034 8.369,9.034 L 7.68,8.975 4.989,2.034 c 0,0 -0.116,-0.307 -0.163,-0.334 0,0 -2.714,7.217 -2.777,7.298 0,0 -1.668,0.047 -1.963,-0.034 0,0 -0.09,-0.067 -0.094,-0.207 z"
             style="fill:#0b4f9f;fill-opacity:1;fill-rule:nonzero;stroke:none"
             id="path1465" />
        </g>
        <g
           id="g1467"
           transform="translate(492.6255,680.9214)">
          <path
             d="m 0,0 c 0,-0.066 0.261,-1.167 0.261,-1.167 0,0 0.05,-0.093 -0.051,-0.128 0,0 -1.19,-0.747 -3.057,-0.56 -1.866,0.187 -1.493,0.296 -2.481,0.715 -0.987,0.421 -1.843,2.194 -1.959,2.808 -0.117,0.615 -0.319,1.439 -0.055,2.473 0.264,1.035 0.801,1.906 1.213,2.349 0.413,0.444 1.276,1.151 2.761,1.361 1.486,0.21 2.544,-0.186 2.544,-0.186 0,0 1.182,-0.389 1.205,-0.661 0,0 -0.326,-0.988 -0.529,-1.121 0,0 0.016,-0.139 -0.147,-0.093 0,0 -1.68,1.034 -3.539,0.218 -1.859,-0.817 -1.735,-2.901 -1.719,-3.126 0.016,-0.226 0.148,-1.968 1.454,-2.645 1.307,-0.677 2.341,-0.568 2.808,-0.482 0.467,0.085 1.143,0.303 1.143,0.303 C -0.148,0.058 0,0.066 0,0"
             style="fill:#0b4f9f;fill-opacity:1;fill-rule:nonzero;stroke:none"
             id="path1469" />
        </g>
        <g
           id="g1471"
           transform="translate(479.0468,688.8271)">
          <path
             d="m 0,0 c 0,0 2.69,-0.016 4.059,-1.618 1.172,-1.371 1.136,-3.515 1.136,-3.515 0,0 0.031,-1.431 -1.136,-2.94 -1.166,-1.509 -2.807,-1.579 -3.554,-1.711 -0.747,-0.132 -2.287,0.194 -3.243,0.824 -0.957,0.63 -1.548,1.61 -1.898,2.614 -0.35,1.003 -0.101,2.504 -0.101,2.504 0,0 0.179,1.439 1.439,2.629 C -2.038,-0.023 0,0 0,0 m 0.035,-1.416 c 0,0 -1.317,-0.016 -2.131,-0.863 -0.813,-0.847 -0.929,-1.871 -0.929,-1.871 0,0 -0.161,-1.068 0.065,-1.782 0.226,-0.714 0.608,-1.412 1.226,-1.86 0.618,-0.448 1.613,-0.681 2.095,-0.587 0.482,0.094 1.542,0.144 2.296,1.218 0.753,1.074 0.733,2.092 0.733,2.092 0,0 0.024,1.526 -0.733,2.502 -0.884,1.14 -2.622,1.151 -2.622,1.151"
             style="fill:#0b4f9f;fill-opacity:1;fill-rule:nonzero;stroke:none"
             id="path1473" />
        </g>
        <g
           id="g1475"
           transform="translate(449.4294,675.9241)">
          <path
             d="m 0,0 c 0,0 -0.078,-0.957 0.062,-0.996 0.14,-0.038 0.934,-0.101 1.066,0.047 0,0 0.101,0.91 -0.043,1.015 C 0.541,0.116 0.179,0.094 0,0"
             style="fill:#0b4f9f;fill-opacity:1;fill-rule:nonzero;stroke:none"
             id="path1477" />
        </g>
        <g
           id="g1479"
           transform="translate(452.4006,675.9399)">
          <path
             d="m 0,0 c 0,0 0.023,-1.874 -0.093,-1.906 h -2.684 c 0,0 -0.225,-0.007 -0.21,-0.28 l -0.007,-2.341 c 0,0 0.007,-0.233 0.14,-0.264 0.132,-0.031 0.898,-0.086 1.061,0.086 l 0.004,1.742 c 0,0 0.031,0.159 0.237,0.167 h 1.225 c 0,0 0.276,0.047 0.319,-0.257 C 0.035,-3.356 0,-4.6 0,-4.6 c 0,0 0.012,-0.199 0.117,-0.21 0.105,-0.012 0.447,-0.039 0.606,-0.031 0.16,0.007 0.409,0.042 0.428,0.112 0.02,0.07 0.023,0.583 0.023,0.583 l -0.007,3.812 c 0,0 -0.016,0.381 -0.133,0.385 C 0.918,0.054 0.226,0.074 0.078,0.031 0.054,0.029 0.028,0.018 0,0"
             style="fill:#0b4f9f;fill-opacity:1;fill-rule:nonzero;stroke:none"
             id="path1481" />
        </g>
        <g
           id="g1483"
           transform="translate(454.5322,675.8873)">
          <path
             d="m 0,0 c 0.015,-0.079 0,-4.521 0,-4.521 0,0 -0.004,-0.269 0.157,-0.269 h 2.665 c 0,0 0.46,0.014 0.483,0.082 0,0 0.018,0.801 -0.131,0.831 L 1.516,-3.885 c 0,0 -0.356,-0.101 -0.363,0.382 -0.008,0.483 -0.045,0.749 0.295,0.749 l 1.613,0.022 c 0,0 0.274,-0.09 0.266,0.371 -0.007,0.46 -0.101,0.52 -0.198,0.512 L 1.478,-1.856 c 0,0 -0.295,-0.019 -0.325,0.247 -0.03,0.266 -0.027,0.786 0.153,0.801 0.18,0.015 1.471,0.022 1.471,0.022 0,0 0.505,-0.049 0.528,0.172 C 3.327,-0.393 3.346,0.09 3.189,0.112 3.031,0.135 0.311,0.127 0.311,0.127 0.311,0.127 -0.015,0.079 0,0"
             style="fill:#0b4f9f;fill-opacity:1;fill-rule:nonzero;stroke:none"
             id="path1485" />
        </g>
        <g
           id="g1487"
           transform="translate(458.7859,675.8699)">
          <path
             d="m 0,0 c 0.035,0.039 0.062,0.113 0.303,0.132 0.241,0.02 0.844,0.02 0.856,-0.171 v -4.472 c 0,0 0.023,-0.26 -0.265,-0.257 l -0.785,0.012 c 0,0 -0.132,0.14 -0.144,0.346 l -0.008,4.192 c 0,0 0.008,0.179 0.043,0.218"
             style="fill:#0b4f9f;fill-opacity:1;fill-rule:nonzero;stroke:none"
             id="path1489" />
        </g>
        <g
           id="g1491"
           transform="translate(460.8937,675.7172)">
          <path
             d="m 0,0 c 0,0 0.012,0.299 0.23,0.287 h 2.445 c 0,0 0.946,-0.057 1.543,-0.642 C 4.815,-0.94 4.86,-1.86 4.86,-1.86 c 0,0 0.081,-1.182 -0.467,-1.773 C 3.845,-4.224 3.404,-4.579 2.47,-4.592 L 0.211,-4.604 c 0,0 -0.223,0.044 -0.223,0.324 z m 1.219,-0.74 v -2.701 c 0.05,-0.187 -0.155,-0.273 0.647,-0.304 0.802,-0.031 1.276,0.46 1.394,0.572 0.118,0.112 0.56,0.697 0.317,1.58 -0.242,0.884 -1.251,1.064 -1.785,1.064 -0.536,0 -0.573,-0.211 -0.573,-0.211"
             style="fill:#0b4f9f;fill-opacity:1;fill-rule:nonzero;stroke:none"
             id="path1493" />
        </g>
        <g
           id="g1495"
           transform="translate(466.5406,675.8873)">
          <path
             d="m 0,0 c 0.015,-0.079 0,-4.521 0,-4.521 0,0 -0.004,-0.269 0.157,-0.269 h 2.665 c 0,0 0.46,0.014 0.483,0.082 0,0 0.018,0.801 -0.131,0.831 L 1.516,-3.885 c 0,0 -0.356,-0.101 -0.363,0.382 -0.008,0.483 -0.045,0.749 0.295,0.749 l 1.613,0.022 c 0,0 0.274,-0.09 0.266,0.371 -0.007,0.46 -0.101,0.52 -0.198,0.512 L 1.478,-1.856 c 0,0 -0.295,-0.019 -0.325,0.247 -0.03,0.266 -0.027,0.786 0.153,0.801 0.18,0.015 1.471,0.022 1.471,0.022 0,0 0.505,-0.049 0.528,0.172 C 3.327,-0.393 3.346,0.09 3.189,0.112 3.031,0.135 0.311,0.127 0.311,0.127 0.311,0.127 -0.015,0.079 0,0"
             style="fill:#0b4f9f;fill-opacity:1;fill-rule:nonzero;stroke:none"
             id="path1497" />
        </g>
        <g
           id="g1499"
           transform="translate(479.5788,675.8873)">
          <path
             d="m 0,0 c 0.015,-0.079 0,-4.521 0,-4.521 0,0 -0.004,-0.269 0.157,-0.269 h 2.665 c 0,0 0.46,0.014 0.483,0.082 0,0 0.018,0.801 -0.131,0.831 L 1.516,-3.885 c 0,0 -0.356,-0.101 -0.363,0.382 -0.008,0.483 -0.045,0.749 0.295,0.749 l 1.613,0.022 c 0,0 0.274,-0.09 0.266,0.371 -0.007,0.46 -0.101,0.52 -0.198,0.512 L 1.478,-1.856 c 0,0 -0.295,-0.019 -0.325,0.247 -0.03,0.266 -0.027,0.786 0.153,0.801 0.18,0.015 1.471,0.022 1.471,0.022 0,0 0.505,-0.049 0.528,0.172 C 3.327,-0.393 3.346,0.09 3.189,0.112 3.031,0.135 0.311,0.127 0.311,0.127 0.311,0.127 -0.015,0.079 0,0"
             style="fill:#0b4f9f;fill-opacity:1;fill-rule:nonzero;stroke:none"
             id="path1501" />
        </g>
        <g
           id="g1503"
           transform="translate(470.8098,675.8311)">
          <path
             d="m 0,0 c 0,0 0,0.152 0.175,0.167 0.175,0.016 0.739,0.016 0.739,0.016 0,0 0.21,0.027 0.229,-0.276 l 0.008,-3.205 c 0,0 -0.035,-0.451 0.214,-0.451 L 3.127,-3.78 c 0,0 0.186,0.035 0.21,-0.105 0.023,-0.14 0.015,-0.54 0.015,-0.54 0,0 0.023,-0.269 -0.093,-0.269 L 0.124,-4.709 c 0,0 -0.112,-0.004 -0.147,0.206 l -0.02,0.836 0.024,3.006 z"
             style="fill:#0b4f9f;fill-opacity:1;fill-rule:nonzero;stroke:none"
             id="path1505" />
        </g>
        <g
           id="g1507"
           transform="translate(475.0175,675.8077)">
          <path
             d="m 0,0 c 0,0 -0.004,0.194 0.292,0.19 l 2.162,0.004 c 0,0 0.742,-0.101 0.968,-0.385 C 3.647,-0.474 3.718,-0.797 3.71,-1.003 3.702,-1.209 3.733,-1.707 3.247,-2.022 2.761,-2.337 3.243,-2.431 3.286,-2.458 3.329,-2.485 3.803,-2.839 3.788,-3.313 3.772,-3.788 3.737,-4.235 3.185,-4.496 2.633,-4.756 1.832,-4.686 1.832,-4.686 H 0.078 c 0,0 -0.059,0 -0.078,0.23 -0.019,0.229 -0.023,2.232 -0.023,2.232 z M 1.322,-0.626 C 1.329,-0.62 1.133,-0.62 1.124,-0.937 1.113,-1.295 1.116,-1.641 1.167,-1.731 1.217,-1.82 1.812,-1.836 1.929,-1.82 c 0.116,0.016 0.645,0.086 0.657,0.587 0.012,0.502 -0.494,0.646 -0.778,0.63 z M 1.147,-2.784 c 0.004,-0.059 -0.008,-0.883 -0.008,-0.883 0,0 -0.007,-0.171 0.171,-0.191 0.179,-0.019 0.774,-0.085 1.07,0.14 0.295,0.226 0.221,0.584 0.144,0.716 -0.078,0.132 -0.195,0.307 -0.634,0.33 -0.44,0.024 -0.634,-0.007 -0.634,-0.007 0,0 -0.113,-0.047 -0.109,-0.105"
             style="fill:#0b4f9f;fill-opacity:1;fill-rule:nonzero;stroke:none"
             id="path1509" />
        </g>
        <g
           id="g1511"
           transform="translate(483.7787,675.8737)">
          <path
             d="M 0,0 C 0,0 0.093,0.125 0.226,0.125 L 2.322,0.121 c 0,0 0.731,0.034 1.123,-0.436 0.393,-0.471 0.284,-1.085 0.284,-1.085 0,0 -0.116,-0.785 -0.684,-0.964 L 2.73,-2.504 c 0,0 -0.082,-0.043 -0.008,-0.129 0.074,-0.085 0.478,-0.587 0.529,-0.692 0.05,-0.105 0.704,-1.291 0.704,-1.291 0,0 0.074,-0.14 -0.008,-0.136 l -1.1,-0.004 c 0,0 -0.113,-0.035 -0.148,0.097 l -0.502,0.953 c 0,0 -0.334,0.821 -0.684,0.809 -0.35,-0.012 -0.342,0 -0.358,-0.097 0,0 -0.027,-1.455 -0.035,-1.54 C 1.112,-4.62 1.167,-4.752 0.976,-4.748 0.786,-4.744 0.093,-4.814 0.016,-4.67 l -0.02,1.404 z M 1.159,-0.704 1.136,-1.812 c 0,0 0.058,-0.183 0.143,-0.187 0.086,-0.004 0.409,-0.05 0.584,-0.023 0.175,0.027 0.49,0.152 0.583,0.299 0.093,0.148 0.167,0.253 0.101,0.564 -0.066,0.311 -0.435,0.482 -0.711,0.482 -0.277,0 -0.677,-0.027 -0.677,-0.027"
             style="fill:#0b4f9f;fill-opacity:1;fill-rule:nonzero;stroke:none"
             id="path1513" />
        </g>
        <g
           id="g1515"
           transform="translate(492.3551,675.7881)">
          <path
             d="m 0,0 c 0,0 -0.177,-0.61 -0.229,-0.675 0,0 0.008,-0.043 -0.143,-0.013 0,0 -1.212,0.316 -1.823,-0.052 -0.61,-0.368 -0.824,-0.897 -0.863,-1.41 -0.039,-0.514 0.249,-1.486 1.112,-1.657 0.863,-0.171 1.019,0.148 1.019,0.148 l 0.046,1.369 c 0,0 -0.046,0.132 0.195,0.167 0.241,0.035 0.708,0.015 0.708,0.015 0,0 0.19,-0.007 0.21,-0.206 L 0.193,-4.266 c 0,0 0.007,-0.14 -0.066,-0.167 -0.074,-0.027 -0.471,-0.261 -1.645,-0.307 -1.175,-0.047 -1.89,0.536 -1.89,0.536 0,0 -0.949,0.778 -0.879,1.96 0.07,1.183 0.599,1.68 0.599,1.68 0,0 0.684,0.973 2.387,0.856 0,0 0.778,-0.07 1.249,-0.257 z"
             style="fill:#0b4f9f;fill-opacity:1;fill-rule:nonzero;stroke:none"
             id="path1517" />
        </g>
        <g
           id="g1519"
           transform="translate(497.4742,675.3599)">
          <path
             d="m 0,0 0.153,0.326 c 0,0 -0.994,0.369 -1.654,0.359 -0.789,-0.012 -1.279,-0.202 -1.812,-0.75 -0.333,-0.344 -0.475,-0.607 -0.61,-1.066 -0.153,-0.518 -0.163,-0.861 -0.031,-1.384 0.126,-0.501 0.272,-0.795 0.638,-1.159 0.338,-0.338 0.602,-0.479 1.061,-0.611 0.405,-0.116 0.626,-0.128 1.077,-0.07 0.451,0.058 0.934,0.253 0.934,0.253 0,0 0.342,0.101 0.307,0.265 0,0 -0.078,0.194 -0.163,0.167 0,0 -0.874,-0.4 -1.455,-0.35 -0.387,0.033 -0.622,0.087 -0.953,0.291 -0.653,0.404 -0.876,0.969 -0.933,1.735 -0.051,0.683 0.051,1.174 0.513,1.68 0.47,0.513 0.961,0.656 1.657,0.661 C -0.757,0.35 0,0 0,0"
             style="fill:#0b4f9f;fill-opacity:1;fill-rule:nonzero;stroke:none"
             id="path1521" />
        </g>
        <g
           id="g1523"
           transform="translate(498.5287,675.8116)">
          <path
             d="m 0,0 c 0,0 -0.008,0.14 0.113,0.171 0.12,0.031 0.218,0.031 0.218,0.031 L 2.376,0.187 c 0,0 0.144,-0.067 0.152,-0.156 C 2.535,-0.058 2.364,-0.132 2.279,-0.136 2.193,-0.14 0.704,-0.148 0.704,-0.148 c 0,0 -0.191,0.012 -0.206,-0.218 l -0.02,-1.287 c 0,0 -0.042,-0.4 0.261,-0.365 l 1.54,-0.031 c 0,0 0.175,-0.016 0.183,-0.16 C 2.469,-2.353 2.217,-2.388 2.217,-2.388 H 0.739 c 0,0 -0.199,0.039 -0.245,-0.229 -0.047,-0.269 -0.023,-1.361 -0.023,-1.361 0,0 0.019,-0.362 0.147,-0.374 0.128,-0.011 1.676,0 1.676,0 0,0 0.269,-0.007 0.269,-0.209 0,-0.203 -0.37,-0.156 -0.37,-0.156 L 0.19,-4.721 c 0,0 -0.194,0.039 -0.194,0.233 C -0.004,-4.293 0,0 0,0"
             style="fill:#0b4f9f;fill-opacity:1;fill-rule:nonzero;stroke:none"
             id="path1525" />
        </g>
        <g
           id="g1527"
           transform="translate(508.9504,675.8116)">
          <path
             d="m 0,0 c 0,0 -0.008,0.14 0.113,0.171 0.12,0.031 0.218,0.031 0.218,0.031 L 2.376,0.187 c 0,0 0.144,-0.067 0.152,-0.156 C 2.536,-0.058 2.364,-0.132 2.279,-0.136 2.193,-0.14 0.704,-0.148 0.704,-0.148 c 0,0 -0.191,0.012 -0.206,-0.218 l -0.02,-1.287 c 0,0 -0.042,-0.4 0.261,-0.365 l 1.54,-0.031 c 0,0 0.175,-0.016 0.183,-0.16 C 2.469,-2.353 2.217,-2.388 2.217,-2.388 H 0.739 c 0,0 -0.198,0.039 -0.245,-0.229 C 0.447,-2.886 0.47,-3.978 0.47,-3.978 c 0,0 0.02,-0.362 0.148,-0.374 0.129,-0.011 1.676,0 1.676,0 0,0 0.269,-0.007 0.269,-0.209 0,-0.203 -0.37,-0.156 -0.37,-0.156 L 0.191,-4.721 c 0,0 -0.195,0.039 -0.195,0.233 C -0.004,-4.293 0,0 0,0"
             style="fill:#0b4f9f;fill-opacity:1;fill-rule:nonzero;stroke:none"
             id="path1529" />
        </g>
        <g
           id="g1531"
           transform="translate(501.9742,671.2383)">
          <path
             d="m 0,0 c 0,0 0.039,-0.07 0.183,-0.101 0.143,-0.031 0.241,-0.016 0.288,0.128 0.046,0.144 0.625,3.877 0.625,3.877 0,0 0.09,0.23 0.156,0.14 L 2.664,0.101 c 0,0 0.077,-0.272 0.346,-0.249 0.268,0.024 0.253,0.062 0.272,0.097 l 1.497,3.913 c 0,0 0.07,0.206 0.226,0.112 L 5.573,0.008 c 0,0 0.007,-0.167 0.256,-0.152 0.249,0.016 0.199,0.175 0.199,0.175 L 5.331,4.499 c 0,0 -0.05,0.288 -0.33,0.273 C 4.721,4.756 4.701,4.67 4.682,4.604 4.663,4.538 3.146,0.646 3.146,0.646 c 0,0 -0.097,-0.175 -0.187,-0.098 L 1.47,4.694 c 0,0 0.011,0.078 -0.265,0.07 C 0.929,4.756 0.863,4.69 0.852,4.643 Z"
             style="fill:#0b4f9f;fill-opacity:1;fill-rule:nonzero;stroke:none"
             id="path1533" />
        </g>
        <g
           id="g1535"
           transform="translate(512.5514,671.3512)">
          <path
             d="m 0,0 c 0,0 0.012,-0.233 0.097,-0.229 l 0.253,0.007 c 0,0 0.047,-0.019 0.074,0.07 l 0.019,3.893 c 0,0 0.109,0.097 0.14,0.058 l 2.862,-3.958 c 0,0 0.105,-0.144 0.265,-0.059 0.159,0.086 0.233,0.148 0.233,0.148 l 0.004,4.569 c 0,0 -0.101,0.249 -0.432,0.09 L 3.523,0.855 c 0,0 -0.035,-0.264 -0.14,-0.147 L 0.541,4.581 c 0,0 -0.101,0.082 -0.195,0.058 C 0.253,4.616 0.039,4.53 0.012,4.46 Z"
             style="fill:#0b4f9f;fill-opacity:1;fill-rule:nonzero;stroke:none"
             id="path1537" />
        </g>
        <g
           id="g1539"
           transform="translate(517.4318,676.0059)">
          <path
             d="m 0,0 c 0,0 -0.202,0.012 -0.206,-0.183 -0.004,-0.194 0.28,-0.159 0.28,-0.159 l 1.132,-0.027 c 0,0 0.19,-0.008 0.19,-0.269 l 0.023,-4.036 c 0,0 0.004,-0.272 0.238,-0.23 0.233,0.043 0.233,0.179 0.241,0.304 0.008,0.124 0.019,4.009 0.019,4.009 0,0 0.031,0.222 0.16,0.241 l 1.194,0.016 c 0,0 0.217,-0.016 0.233,0.159 C 3.519,0 3.302,0.004 3.302,0.004 Z"
             style="fill:#0b4f9f;fill-opacity:1;fill-rule:nonzero;stroke:none"
             id="path1541" />
        </g>
        <g
           id="g1543"
           transform="translate(525.6266,675.5068)">
          <path
             d="m 0,0 c 0,0 0.205,-0.11 0.274,-0.005 0,0 0.13,0.215 0.045,0.29 -0.084,0.074 -1.028,0.306 -1.681,0.207 -0.715,-0.108 -1.181,-0.272 -1.669,-0.805 -0.418,-0.456 -0.586,-0.833 -0.647,-1.449 -0.037,-0.382 -0.012,-0.612 0.099,-0.98 0.15,-0.498 0.315,-0.788 0.702,-1.135 0.335,-0.301 0.588,-0.414 1.021,-0.538 0.513,-0.147 0.766,-0.165 1.368,-0.045 0.603,0.12 0.921,0.276 0.996,0.349 0,0 0.05,1.171 0.04,1.494 -0.01,0.323 -0.08,0.756 -0.08,0.756 L 0.095,-1.851 0.09,-3.718 c 0,0 0.001,-0.25 -0.283,-0.319 -0.285,-0.068 -0.811,-0.19 -1.31,-0.079 -0.443,0.099 -0.713,0.207 -1.041,0.522 -0.392,0.377 -0.522,0.721 -0.596,1.26 -0.083,0.603 -0.009,1.017 0.323,1.528 0.328,0.504 0.667,0.741 1.244,0.911 C -0.983,0.279 0,0 0,0"
             style="fill:#0b4f9f;fill-opacity:1;fill-rule:nonzero;stroke:none"
             id="path1545" />
        </g>
        <g
           id="g1547"
           transform="translate(527.1886,671.4485)">
          <path
             d="m 0,0 c 0,0 0.004,-0.311 0.14,-0.311 0.136,0 0.303,-0.078 0.315,0.319 0.012,0.396 -0.004,1.901 -0.004,1.901 0,0 0.058,0.249 0.233,0.447 C 0.859,2.555 1.186,2.749 1.31,2.784 1.435,2.819 1.59,2.823 1.618,2.92 1.645,3.018 1.633,3.177 1.594,3.185 1.556,3.192 1.415,3.235 1.252,3.165 1.089,3.095 0.754,2.807 0.681,2.699 0.607,2.59 0.455,2.559 0.393,2.71 0.331,2.862 0.416,3.099 0.245,3.123 H 0.019 Z"
             style="fill:#0b4f9f;fill-opacity:1;fill-rule:nonzero;stroke:none"
             id="path1549" />
        </g>
        <g
           id="g1551"
           transform="translate(530.7313,674.6799)">
          <path
             d="M 0,0 0.089,-0.004 C 0.691,-0.019 1.109,-0.255 1.435,-0.762 1.694,-1.166 1.704,-1.493 1.664,-1.972 1.628,-2.398 1.474,-2.749 1.314,-3.01 1.155,-3.27 0.945,-3.445 0.607,-3.582 c -0.339,-0.136 -0.86,-0.089 -0.86,-0.089 0,0 -0.587,0.035 -0.956,0.471 -0.37,0.435 -0.443,0.727 -0.46,1.244 -0.022,0.638 0.103,1.109 0.584,1.528 C -0.742,-0.129 -0.455,-0.016 0,0 m 0.035,-0.307 c 0,0 -0.432,0.023 -0.747,-0.296 -0.315,-0.319 -0.377,-0.606 -0.416,-0.785 -0.039,-0.179 -0.07,-0.455 -0.058,-0.669 0.012,-0.214 0.066,-0.55 0.266,-0.821 0.226,-0.304 0.443,-0.491 0.82,-0.521 0.363,-0.029 0.597,0.103 0.864,0.35 0.26,0.24 0.379,0.576 0.414,0.805 0.035,0.23 0.171,0.93 -0.256,1.47 -0.428,0.541 -0.887,0.467 -0.887,0.467"
             style="fill:#0b4f9f;fill-opacity:1;fill-rule:nonzero;stroke:none"
             id="path1553" />
        </g>
        <g
           id="g1555"
           transform="translate(533.2394,674.3533)">
          <path
             d="m 0,0 c 0,0 0.012,0.222 0.109,0.229 0.097,0.008 0.237,0.008 0.237,0.008 0,0 0.094,-0.047 0.101,-0.237 l 0.004,-2.271 c 0,0 0.058,-0.661 0.416,-0.727 0.358,-0.066 0.669,0.027 0.918,0.225 0.249,0.199 0.486,0.448 0.494,0.63 l 0.015,2.17 c 0,0 -0.011,0.214 0.199,0.218 0.21,0.004 0.198,-0.385 0.198,-0.385 l 0.008,-2.788 c 0,0 0.008,-0.327 -0.199,-0.315 -0.206,0.011 -0.233,0.334 -0.284,0.486 0,0 0.008,0.027 -0.046,-0.012 0,0 -0.642,-0.529 -0.968,-0.567 C 0.875,-3.375 0.591,-3.352 0.385,-3.239 0.179,-3.127 0.016,-2.823 0,-2.617 -0.016,-2.411 0,0 0,0"
             style="fill:#0b4f9f;fill-opacity:1;fill-rule:nonzero;stroke:none"
             id="path1557" />
        </g>
        <g
           id="g1559"
           transform="translate(537.1904,674.5866)">
          <path
             d="M 0,0 C 0,0 0.109,0.008 0.14,0.004 0.171,0 0.112,-0.264 0.223,-0.358 0.392,-0.502 0.556,-0.241 0.735,-0.109 0.922,0.029 1.126,0.089 1.396,0.097 1.712,0.106 1.912,0.041 2.172,-0.14 2.621,-0.455 2.776,-0.867 2.85,-1.431 2.898,-1.786 2.866,-1.964 2.771,-2.345 2.673,-2.74 2.534,-2.974 2.216,-3.228 1.852,-3.517 1.534,-3.618 1.073,-3.562 0.773,-3.526 0.583,-3.077 0.354,-3.274 0.286,-3.333 0.254,-3.38 0.226,-3.465 L 0.218,-5.017 c -0.05,-0.094 -0.14,-0.139 -0.245,-0.12 -0.11,0.019 -0.184,0.102 -0.191,0.214 -0.021,0.543 -0.029,0.849 -0.035,1.392 -0.007,0.623 0.008,1.598 0.008,1.598 l 0.043,1.746 C -0.187,0.039 0,0 0,0 m 0.202,-1.237 c 0,-0.268 0.012,-1.302 0.012,-1.302 0,0 0.19,-0.658 0.781,-0.696 0.592,-0.039 0.833,0.194 0.918,0.264 0.086,0.07 0.374,0.534 0.447,0.929 0.055,0.293 0.069,0.475 -0.007,0.763 -0.139,0.516 -0.288,1.022 -0.91,1.026 C 0.821,-0.249 0.486,-0.591 0.447,-0.649 0.408,-0.708 0.202,-0.968 0.202,-1.237"
             style="fill:#0b4f9f;fill-opacity:1;fill-rule:nonzero;stroke:none"
             id="path1561" />
        </g>
      </g>
    </g>
  </g>
</svg>
