<?xml version="1.0" encoding="UTF-8" standalone="no"?>
<svg
   xmlns:dc="http://purl.org/dc/elements/1.1/"
   xmlns:cc="http://creativecommons.org/ns#"
   xmlns:rdf="http://www.w3.org/1999/02/22-rdf-syntax-ns#"
   xmlns:svg="http://www.w3.org/2000/svg"
   xmlns="http://www.w3.org/2000/svg"
   xmlns:sodipodi="http://sodipodi.sourceforge.net/DTD/sodipodi-0.dtd"
   xmlns:inkscape="http://www.inkscape.org/namespaces/inkscape"
   version="1.1"
   id="svg2"
   xml:space="preserve"
   width="95.089943"
   height="64.403297"
   viewBox="0 0 95.089942 64.403296"
   sodipodi:docname="logo Wijaya Karya.svg"
   inkscape:version="1.0.1 (3bc2e813f5, 2020-09-07)"><metadata
     id="metadata8"><rdf:RDF><cc:Work
         rdf:about=""><dc:format>image/svg+xml</dc:format><dc:type
           rdf:resource="http://purl.org/dc/dcmitype/StillImage" /><dc:title></dc:title></cc:Work></rdf:RDF></metadata><defs
     id="defs6"><clipPath
       clipPathUnits="userSpaceOnUse"
       id="clipPath18"><path
         d="M 0,0 H 595.275 V 841.89 H 0 Z"
         id="path16" /></clipPath><clipPath
       clipPathUnits="userSpaceOnUse"
       id="clipPath62"><path
         d="m 484.81,747.64 h 72.166 v 57.77 H 484.81 Z"
         id="path60" /></clipPath></defs><sodipodi:namedview
     pagecolor="#ffffff"
     bordercolor="#666666"
     borderopacity="1"
     objecttolerance="10"
     gridtolerance="10"
     guidetolerance="10"
     inkscape:pageopacity="0"
     inkscape:pageshadow="2"
     inkscape:window-width="1366"
     inkscape:window-height="705"
     id="namedview4"
     showgrid="false"
     fit-margin-top="0"
     fit-margin-left="0"
     fit-margin-right="0"
     fit-margin-bottom="0"
     inkscape:zoom="3.0785765"
     inkscape:cx="55.421398"
     inkscape:cy="65.134516"
     inkscape:window-x="-8"
     inkscape:window-y="-8"
     inkscape:window-maximized="1"
     inkscape:current-layer="g10" /><g
     id="g10"
     inkscape:groupmode="layer"
     inkscape:label="Annual Report 2020"
     transform="matrix(1.3333333,0,0,-1.3333333,-647.5457,1073.996)"><g
       id="g64"
       transform="translate(541.955,778.635)"><path
         d="M 0,0 C 0.651,0 1.247,-0.004 1.843,0.002 2.113,0.005 2.142,0.047 2.105,0.323 1.99,1.192 1.881,2.062 1.752,2.928 1.712,3.2 1.72,3.484 1.575,3.823 1.035,2.53 0.528,1.296 0,0 m 8.248,-5.785 c -0.123,0.04 -0.252,0.023 -0.378,0.023 -1.524,10e-4 -3.047,0 -4.571,10e-4 -0.334,0 -0.354,0.022 -0.405,0.342 -0.106,0.671 -0.21,1.342 -0.323,2.011 -0.065,0.387 -0.072,0.388 -0.477,0.389 -0.973,0.002 -1.945,0.001 -2.918,0.002 -0.394,10e-4 -0.438,-0.028 -0.594,-0.408 -0.276,-0.672 -0.558,-1.341 -0.826,-2.015 -0.094,-0.239 -0.229,-0.33 -0.499,-0.328 -2.52,0.011 -5.04,0.006 -7.559,0.007 -0.059,0 -0.118,-0.003 -0.176,0 -0.233,0.012 -0.282,0.049 -0.319,0.285 -0.037,0.243 -0.057,0.488 -0.087,0.733 -0.107,0.895 -0.213,1.79 -0.324,2.685 -0.148,1.196 -0.299,2.393 -0.45,3.589 -0.104,0.825 -0.205,1.65 -0.318,2.474 -0.053,0.39 -0.083,0.406 -0.466,0.408 -0.633,10e-4 -1.266,0 -1.898,0 -0.393,0 -0.427,-0.026 -0.524,-0.412 -0.783,-3.11 -1.566,-6.219 -2.348,-9.329 -0.107,-0.423 -0.117,-0.433 -0.537,-0.433 -3.352,-10e-4 -6.704,0 -10.056,0 -0.07,0 -0.141,0 -0.211,0.004 -0.126,0.006 -0.197,0.065 -0.18,0.201 0.009,0.069 0.015,0.14 0.03,0.208 0.498,2.239 0.997,4.478 1.495,6.717 0.198,0.891 0.394,1.782 0.586,2.675 0.072,0.336 0.046,0.363 -0.294,0.369 -0.058,10e-4 -0.117,0 -0.176,0 -1.078,10e-4 -2.156,10e-4 -3.234,0.003 -0.406,10e-4 -0.476,-0.043 -0.625,-0.423 -0.594,-1.515 -1.188,-3.031 -1.78,-4.547 -0.626,-1.602 -1.251,-3.206 -1.879,-4.808 -0.146,-0.373 -0.203,-0.404 -0.599,-0.403 -0.961,0.003 -1.922,0.002 -2.883,0.004 -0.368,0.001 -0.418,0.051 -0.462,0.417 -0.078,0.651 -0.154,1.302 -0.238,1.952 -0.254,1.939 -0.507,3.877 -0.772,5.814 -0.037,0.275 -0.026,0.566 -0.14,0.85 -0.129,-0.106 -0.152,-0.226 -0.198,-0.331 -0.68,-1.555 -1.358,-3.112 -2.036,-4.668 -0.528,-1.213 -1.058,-2.426 -1.581,-3.641 -0.1,-0.233 -0.224,-0.401 -0.509,-0.399 -0.914,0.007 -1.828,0.002 -2.743,0.007 -0.325,10e-4 -0.349,0.016 -0.4,0.353 -0.071,0.463 -0.123,0.929 -0.178,1.394 -0.151,1.267 -0.291,2.536 -0.45,3.802 -0.192,1.522 -0.405,3.041 -0.599,4.562 -0.195,1.521 -0.377,3.044 -0.566,4.567 -0.037,0.297 -0.043,0.304 -0.349,0.307 -0.469,0.004 -0.938,0 -1.407,0.001 -0.57,10e-4 -0.567,10e-4 -0.782,-0.539 -1.056,-2.656 -1.269,-5.41 -0.933,-8.221 0.327,-2.737 1.359,-5.197 2.995,-7.405 1.449,-1.955 3.261,-3.516 5.295,-4.832 2.679,-1.734 5.605,-2.907 8.662,-3.775 4.115,-1.167 8.33,-1.656 12.589,-1.814 2.109,-0.078 4.216,0.011 6.321,0.173 1.776,0.137 3.543,0.335 5.297,0.648 2.727,0.487 5.394,1.192 7.973,2.209 2.631,1.038 5.093,2.375 7.278,4.19 1.387,1.152 2.61,2.456 3.602,3.968 0.074,0.114 0.185,0.217 0.134,0.387 M -34.94,2.809 c 0.114,0.115 0.14,0.232 0.183,0.338 1.138,2.81 2.275,5.621 3.412,8.432 0.181,0.446 0.205,0.463 0.703,0.46 0.621,-0.003 1.242,-0.007 1.863,-0.008 0.41,-0.001 0.821,0.005 1.231,0 0.227,-0.003 0.249,-0.041 0.182,-0.248 -0.022,-0.067 -0.051,-0.131 -0.077,-0.197 -0.473,-1.21 -0.946,-2.42 -1.419,-3.63 -0.162,-0.416 -0.162,-0.417 0.274,-0.417 2.204,0 4.407,0.001 6.61,-0.002 0.478,0 0.493,0.09 0.373,-0.481 -0.639,-3.047 -1.282,-6.092 -1.923,-9.139 -0.062,-0.298 -0.114,-0.597 -0.17,-0.896 -0.031,-0.166 0.045,-0.244 0.207,-0.248 0.058,-0.002 0.117,-0.002 0.175,-0.002 0.856,0 1.711,-10e-4 2.567,0 0.373,0 0.409,0.028 0.499,0.395 0.802,3.286 1.603,6.571 2.404,9.857 0.377,1.546 0.751,3.093 1.127,4.64 0.087,0.354 0.12,0.378 0.475,0.374 0.222,-0.003 0.445,-0.006 0.668,-0.006 0.75,-0.001 1.5,0 2.25,-0.001 0.371,-10e-4 0.4,-0.038 0.32,-0.411 -0.05,-0.228 -0.106,-0.456 -0.158,-0.684 -0.223,-0.993 -0.449,-1.986 -0.666,-2.981 -0.079,-0.359 -0.05,-0.389 0.305,-0.393 0.421,-0.004 0.843,0.025 1.264,-0.017 0.209,-0.022 0.391,0.068 0.53,0.228 0.076,0.088 0.142,0.186 0.208,0.282 0.825,1.196 1.655,2.388 2.469,3.591 0.192,0.284 0.418,0.414 0.759,0.398 0.433,-0.019 0.867,-0.012 1.3,-0.012 0.586,-0.001 1.172,0.004 1.758,0.003 0.287,0 0.315,-0.049 0.17,-0.301 C -5.19,11.52 -5.322,11.312 -5.45,11.102 -6.303,9.702 -7.153,8.299 -8.013,6.903 -8.193,6.611 -8.315,6.324 -8.219,5.976 -8.195,5.887 -8.199,5.79 -8.187,5.697 -7.986,4.142 -7.782,2.586 -7.583,1.03 c 0.167,-1.312 0.328,-2.625 0.494,-3.938 0.034,-0.272 0.085,-0.319 0.357,-0.322 0.422,-0.004 0.844,-0.002 1.265,10e-4 0.529,0.004 0.468,-0.076 0.678,0.461 1.443,3.684 2.882,7.37 4.323,11.055 0.443,1.134 0.886,2.267 1.331,3.401 0.134,0.339 0.138,0.341 0.48,0.342 1.079,0.001 2.157,0.002 3.235,-10e-4 0.32,0 0.329,-0.011 0.369,-0.33 C 5.112,10.422 5.271,9.144 5.436,7.867 5.606,6.543 5.782,5.22 5.952,3.897 6.132,2.503 6.309,1.11 6.486,-0.284 c 0.101,-0.789 0.198,-1.579 0.303,-2.369 0.042,-0.314 0.055,-0.323 0.376,-0.324 0.761,-0.003 1.523,0.004 2.284,-0.004 0.208,-0.003 0.335,0.069 0.39,0.269 0.025,0.09 0.059,0.178 0.088,0.267 0.785,2.414 0.966,4.878 0.655,7.391 -0.338,2.749 -1.346,5.223 -2.996,7.44 -1.539,2.068 -3.459,3.715 -5.644,5.063 -2.927,1.807 -6.099,3.014 -9.423,3.852 -2.068,0.522 -4.162,0.9 -6.282,1.141 -1.456,0.165 -2.913,0.298 -4.378,0.336 -0.866,0.023 -1.734,0.014 -2.601,0.02 -2.804,0.019 -5.594,-0.149 -8.369,-0.571 -2.039,-0.31 -4.056,-0.717 -6.039,-1.286 -3.033,-0.87 -5.919,-2.075 -8.577,-3.795 -1.934,-1.252 -3.644,-2.751 -5.045,-4.589 -0.086,-0.112 -0.174,-0.221 -0.251,-0.339 -0.065,-0.1 -0.054,-0.18 0.09,-0.185 0.082,-0.003 0.164,-0.003 0.246,-0.003 1.102,0 2.203,0.001 3.305,0 0.392,0 0.403,-0.012 0.458,-0.405 0.003,-0.023 0.003,-0.047 0.007,-0.07 0.196,-1.332 0.395,-2.663 0.589,-3.995 0.207,-1.413 0.409,-2.826 0.617,-4.239 0.022,-0.151 0.022,-0.317 0.151,-0.433 0.107,0.067 0.129,0.163 0.165,0.247 0.736,1.735 1.471,3.471 2.205,5.207 0.47,1.111 0.941,2.221 1.403,3.335 0.102,0.247 0.252,0.369 0.529,0.365 0.82,-0.012 1.64,-0.006 2.46,-0.013 0.254,-0.002 0.28,-0.024 0.323,-0.271 0.082,-0.472 0.152,-0.947 0.23,-1.421 0.373,-2.263 0.744,-4.527 1.123,-6.79 0.039,-0.236 0.027,-0.489 0.182,-0.738 m 14.253,24.053 c 1.857,-0.004 3.451,-10e-4 5.043,-0.089 1.379,-0.077 2.757,-0.185 4.133,-0.316 1.364,-0.129 2.725,-0.284 4.083,-0.465 1.566,-0.207 3.125,-0.465 4.677,-0.764 3.302,-0.636 6.557,-1.458 9.746,-2.529 1.787,-0.6 3.543,-1.281 5.277,-2.023 0.356,-0.152 0.562,-0.382 0.655,-0.756 0.525,-2.114 0.981,-4.241 1.305,-6.396 0.277,-1.842 0.473,-3.693 0.604,-5.55 0.191,-2.726 0.231,-5.455 0.137,-8.185 -0.064,-1.838 -0.202,-3.672 -0.414,-5.499 -0.329,-2.852 -0.849,-5.67 -1.565,-8.452 -0.215,-0.835 -0.212,-0.835 -1.021,-1.185 -3.88,-1.678 -7.902,-2.913 -12.017,-3.859 -2.386,-0.548 -4.793,-0.978 -7.216,-1.317 -1.334,-0.187 -2.674,-0.32 -4.014,-0.453 -2.578,-0.255 -5.162,-0.374 -7.751,-0.44 -2.461,-0.062 -4.918,-0.004 -7.375,0.149 -1.345,0.083 -2.688,0.18 -4.028,0.317 -2.026,0.207 -4.045,0.473 -6.056,0.808 -2.668,0.444 -5.312,1.001 -7.923,1.712 -3.144,0.856 -6.217,1.918 -9.206,3.22 -0.334,0.145 -0.507,0.352 -0.596,0.706 -0.523,2.078 -0.984,4.169 -1.303,6.288 -0.19,1.262 -0.339,2.53 -0.459,3.801 -0.162,1.726 -0.296,3.455 -0.309,5.189 -0.019,2.378 -0.053,4.757 0.126,7.131 0.306,4.071 0.89,8.096 1.946,12.046 0.097,0.363 0.287,0.583 0.63,0.732 3.716,1.609 7.554,2.843 11.491,3.783 2.369,0.565 4.759,1.026 7.167,1.385 1.401,0.209 2.809,0.37 4.218,0.521 2.132,0.231 4.272,0.337 6.413,0.434 1.289,0.059 2.577,0.046 3.602,0.056"
         style="fill:#019fe3;fill-opacity:1;fill-rule:nonzero;stroke:none"
         id="path66" /></g><g
       id="g164"
       transform="translate(519.725,790.666)"><path
         d="M 0,0 C 0.479,0 0.959,0.004 1.438,-0.002 1.705,-0.005 1.721,-0.028 1.667,-0.288 1.517,-1.02 1.364,-1.751 1.208,-2.482 1.151,-2.749 1.085,-2.804 0.795,-2.805 c -0.923,-0.003 -1.847,-0.004 -2.77,0 -0.316,0.002 -0.342,0.041 -0.276,0.352 0.151,0.708 0.302,1.415 0.458,2.122 0.07,0.317 0.087,0.328 0.425,0.33 C -0.912,0.002 -0.456,0 0,0"
         style="fill:#06a1e4;fill-opacity:1;fill-rule:nonzero;stroke:none"
         id="path166" /></g></g></svg>
